<mxfile host="app.diagrams.net" modified="2022-11-21T21:46:21.917Z" agent="5.0 (Windows NT 10.0; Win64; x64) AppleWebKit/537.36 (KHTML, like Gecko) Chrome/107.0.0.0 Safari/537.36" etag="28yJT6O3ew9EGt2cvsP-" version="20.5.3" type="github">
  <diagram id="Y_f2DOLCJNhr2vDUj-jW" name="Page-1">
    <mxGraphModel dx="1278" dy="583" grid="1" gridSize="10" guides="1" tooltips="1" connect="1" arrows="1" fold="1" page="1" pageScale="1" pageWidth="850" pageHeight="1100" math="0" shadow="0">
      <root>
        <mxCell id="0" />
        <mxCell id="1" parent="0" />
        <mxCell id="KxwpUGGH7_l-fyKmkpRd-1" value="DB" style="shape=cylinder3;whiteSpace=wrap;html=1;boundedLbl=1;backgroundOutline=1;size=15;" vertex="1" parent="1">
          <mxGeometry x="720" y="170" width="60" height="80" as="geometry" />
        </mxCell>
        <mxCell id="KxwpUGGH7_l-fyKmkpRd-22" style="edgeStyle=orthogonalEdgeStyle;rounded=0;orthogonalLoop=1;jettySize=auto;html=1;exitX=1;exitY=0.5;exitDx=0;exitDy=0;entryX=0;entryY=0.5;entryDx=0;entryDy=0;" edge="1" parent="1" source="KxwpUGGH7_l-fyKmkpRd-11" target="KxwpUGGH7_l-fyKmkpRd-17">
          <mxGeometry relative="1" as="geometry" />
        </mxCell>
        <mxCell id="KxwpUGGH7_l-fyKmkpRd-11" value="Website" style="rounded=1;whiteSpace=wrap;html=1;" vertex="1" parent="1">
          <mxGeometry x="40" y="340" width="120" height="60" as="geometry" />
        </mxCell>
        <mxCell id="KxwpUGGH7_l-fyKmkpRd-12" value="Timetable Generator" style="rounded=1;whiteSpace=wrap;html=1;" vertex="1" parent="1">
          <mxGeometry x="295" y="190" width="120" height="60" as="geometry" />
        </mxCell>
        <mxCell id="KxwpUGGH7_l-fyKmkpRd-14" style="edgeStyle=orthogonalEdgeStyle;rounded=0;orthogonalLoop=1;jettySize=auto;html=1;exitX=0.5;exitY=1;exitDx=0;exitDy=0;entryX=0.5;entryY=0;entryDx=0;entryDy=0;" edge="1" parent="1" source="KxwpUGGH7_l-fyKmkpRd-13" target="KxwpUGGH7_l-fyKmkpRd-12">
          <mxGeometry relative="1" as="geometry" />
        </mxCell>
        <mxCell id="KxwpUGGH7_l-fyKmkpRd-21" style="edgeStyle=orthogonalEdgeStyle;rounded=0;orthogonalLoop=1;jettySize=auto;html=1;exitX=1;exitY=0.5;exitDx=0;exitDy=0;entryX=0.5;entryY=0;entryDx=0;entryDy=0;" edge="1" parent="1" source="KxwpUGGH7_l-fyKmkpRd-13" target="KxwpUGGH7_l-fyKmkpRd-15">
          <mxGeometry relative="1" as="geometry" />
        </mxCell>
        <mxCell id="KxwpUGGH7_l-fyKmkpRd-13" value="Genetic Algorithm Model" style="rounded=1;whiteSpace=wrap;html=1;" vertex="1" parent="1">
          <mxGeometry x="295" y="80" width="120" height="60" as="geometry" />
        </mxCell>
        <mxCell id="KxwpUGGH7_l-fyKmkpRd-16" style="edgeStyle=orthogonalEdgeStyle;rounded=0;orthogonalLoop=1;jettySize=auto;html=1;exitX=1;exitY=0.5;exitDx=0;exitDy=0;entryX=0;entryY=0.5;entryDx=0;entryDy=0;entryPerimeter=0;" edge="1" parent="1" source="KxwpUGGH7_l-fyKmkpRd-15" target="KxwpUGGH7_l-fyKmkpRd-1">
          <mxGeometry relative="1" as="geometry" />
        </mxCell>
        <mxCell id="KxwpUGGH7_l-fyKmkpRd-15" value="DB Models" style="rounded=1;whiteSpace=wrap;html=1;" vertex="1" parent="1">
          <mxGeometry x="510" y="180" width="120" height="60" as="geometry" />
        </mxCell>
        <mxCell id="KxwpUGGH7_l-fyKmkpRd-18" style="edgeStyle=orthogonalEdgeStyle;rounded=0;orthogonalLoop=1;jettySize=auto;html=1;exitX=1;exitY=0.5;exitDx=0;exitDy=0;entryX=0.5;entryY=1;entryDx=0;entryDy=0;" edge="1" parent="1" source="KxwpUGGH7_l-fyKmkpRd-17" target="KxwpUGGH7_l-fyKmkpRd-15">
          <mxGeometry relative="1" as="geometry" />
        </mxCell>
        <mxCell id="KxwpUGGH7_l-fyKmkpRd-19" style="edgeStyle=orthogonalEdgeStyle;rounded=0;orthogonalLoop=1;jettySize=auto;html=1;exitX=0.5;exitY=0;exitDx=0;exitDy=0;entryX=0.5;entryY=1;entryDx=0;entryDy=0;" edge="1" parent="1" source="KxwpUGGH7_l-fyKmkpRd-17" target="KxwpUGGH7_l-fyKmkpRd-12">
          <mxGeometry relative="1" as="geometry" />
        </mxCell>
        <mxCell id="KxwpUGGH7_l-fyKmkpRd-17" value="Backend" style="rounded=1;whiteSpace=wrap;html=1;" vertex="1" parent="1">
          <mxGeometry x="295" y="340" width="120" height="60" as="geometry" />
        </mxCell>
      </root>
    </mxGraphModel>
  </diagram>
</mxfile>
